<svg id="Layer_1" xmlns="http://www.w3.org/2000/svg" viewBox="0 0 500 144" enable-background="new 0 0 500 144"><style>.st2{fill:#cb3333;fill-opacity:.5}.st5{fill:#fff}</style><g id="Branding"><g id="Atoms-_x2F_-Logos-_x2F_-Rivalry-_x2F_-Horizontal"><g id="Vert-Line" transform="translate(164)"><g id="Atoms-_x2F_-Colours-_x2F_-Turquoise---_x23_01C8D0"><path id="_x23_01C8D0---Turquoise" fill="#01c8d0" d="M0 0h1v144H0z"/></g></g><g id="Atoms-_x2F_-Logos-_x2F_-Rivalry-_x2F_-R-_x28_Colour_x29_" transform="translate(0 15)"><g id="Rivalry-R"><linearGradient id="Fill-11_1_" gradientUnits="userSpaceOnUse" x1="-345.447" y1="368.892" x2="-345.447" y2="367.892" gradientTransform="matrix(114.3136 0 0 -114.3136 39546.441 42169.344)"><stop offset="0" stop-color="#f6be23"/><stop offset="1" stop-color="#ff5a00"/></linearGradient><path id="Fill-11" d="M57.2 57.2V28.6h14.3c7.9 0 14.3 6.4 14.3 14.3s-6.4 14.3-14.3 14.3H57.2zM71.4 0H0l28.6 28.6v28.6H0l28.6 28.6v28.6h28.6V85.7H71l13.8 28.6h28.6L95.9 78.1c11.1-7.7 18.4-20.6 18.4-35.2C114.3 19.2 95.1 0 71.4 0z" fill="url(#Fill-11_1_)"/><path id="Fill-12" class="st2" d="M57.2 57.2l-28.6-3.8v3.8z"/><path id="Fill-13" fill="#cb3333" fill-opacity=".25" d="M57.2 28.6H28.6v3.6l28.6 10.7z"/><path id="Fill-14" class="st2" d="M57.2 85.7H28.6v7.2l28.6 7.1z"/><path id="Fill-15" class="st2" d="M95.8 78.7C89 83.3 80.8 86 71.9 86h-.4l8.3 17.1c8.9-.6 18-1.7 24.5-6.8l-8.5-17.6z"/></g></g><defs><filter id="Adobe_OpacityMaskFilter" filterUnits="userSpaceOnUse" x="212.5" y="47" width="287" height="50"><feColorMatrix values="1 0 0 0 0 0 1 0 0 0 0 0 1 0 0 0 0 0 1 0"/></filter></defs><mask maskUnits="userSpaceOnUse" x="212.5" y="47" width="287" height="50" id="mask-2_2_"><g filter="url(#Adobe_OpacityMaskFilter)"><path id="path-1_2_" class="st5" d="M482.2 77.4v19h-11.1v-19l-16.9-28.9H467l9.8 18.4 9.8-18.4h12.5l-16.9 28.9zm-45 18.9L429 80.7c-.3 0-.7.1-.9.1h-3c-.6 0-1.2-.1-2-.1v15.7H412V48.9c2-.2 4.2-.4 6.5-.6 2.3-.2 4.8-.2 7.6-.2 3.7 0 6.9.4 9.5 1.2 2.6.8 4.8 2 6.4 3.4 1.7 1.4 2.9 3.1 3.7 5.1.8 1.9 1.1 4 1.1 6.2 0 2.9-.7 5.5-2.2 7.9-1.4 2.4-3.5 4.4-6.1 5.9l11.2 18.5h-12.5zm-1.9-32c0-2-.7-3.6-2.2-4.7-1.4-1.1-3.4-1.7-5.7-1.7-.9 0-1.6 0-2.2.1-.6 0-1.3.1-2.1.3v13.2c.7.1 1.3.1 1.8.2h1.7c2.7 0 4.8-.6 6.3-1.9 1.6-1.2 2.4-3 2.4-5.5zm-63.3 32V48.4h11.1v37.8h19.2v10.1H372zm-19.2 0l-3.6-8.7h-16.5l-3.6 8.7h-11.3L340.3 48h1.5l22.6 48.3h-11.6zm-11.9-28.7l-4.8 11.5h9.5l-4.7-11.5zm-36.1 29.1h-1.3l-22.9-48.3h12.8l10.9 25.9 10.9-25.9h12.5l-22.9 48.3zm-43.3-.4V48.4h11.1v47.9h-11.1zm-22.7 0l-8.2-15.6c-.3 0-.7.1-.9.1h-3c-.6 0-1.2-.1-2-.1v15.7h-11.1V48.9c2-.2 4.2-.4 6.5-.6 2.3-.2 4.8-.2 7.6-.2 3.7 0 6.9.4 9.5 1.2 2.6.8 4.8 2 6.4 3.4 1.7 1.4 2.9 3.1 3.7 5.1.8 1.9 1.1 4 1.1 6.2 0 2.9-.7 5.5-2.2 7.9-1.4 2.4-3.5 4.4-6.1 5.9l11.2 18.5h-12.5zm-2-32c0-2-.7-3.6-2.2-4.7-1.4-1.1-3.4-1.7-5.7-1.7-.9 0-1.6 0-2.2.1-.6 0-1.3.1-2.1.3v13.2c.7.1 1.3.1 1.8.2h1.7c2.7 0 4.8-.6 6.3-1.9 1.6-1.2 2.4-3 2.4-5.5z"/></g></mask><g id="Atoms-_x2F_-Colours-_x2F_-White---_x23_FFFFFF" mask="url(#mask-2_2_)"><path class="st5" d="M213.5 48h287v50h-287z" transform="translate(-1 -1)" id="_x23_FFFFFF---White"/></g></g></g></svg>